<svg width="14" height="13" viewBox="0 0 14 13" fill="none" xmlns="http://www.w3.org/2000/svg">
<path d="M7.29396 10.5089C9.50822 10.5089 11.3032 8.71388 11.3032 6.49961C11.3032 4.28535 9.50822 2.49033 7.29396 2.49033C5.07969 2.49033 3.28467 4.28535 3.28467 6.49961C3.28467 8.71388 5.07969 10.5089 7.29396 10.5089Z" fill="white"/>
<path d="M7.29375 0C7.17838 0 7.08398 0.0943926 7.08398 0.209761V1.38652C7.08398 1.50189 7.17838 1.59628 7.29375 1.59628C7.40911 1.59628 7.50351 1.50189 7.50351 1.38652V0.209761C7.50351 0.0943926 7.40911 0 7.29375 0Z" fill="white"/>
<path d="M7.29375 11.4038C7.17838 11.4038 7.08398 11.4982 7.08398 11.6135V12.7903C7.08398 12.9057 7.17838 13.0001 7.29375 13.0001C7.40911 13.0001 7.50351 12.9057 7.50351 12.7903V11.6135C7.50351 11.4971 7.40911 11.4038 7.29375 11.4038Z" fill="white"/>
<path d="M11.5928 1.90356L10.7611 2.73527C10.6793 2.81707 10.6793 2.95027 10.7611 3.03208C10.802 3.07298 10.8555 3.09396 10.9089 3.09396C10.9624 3.09396 11.0159 3.07298 11.0568 3.03208L11.8885 2.20038C11.9703 2.11857 11.9703 1.98537 11.8885 1.90356C11.8067 1.82176 11.6746 1.82176 11.5928 1.90356Z" fill="white"/>
<path d="M3.52929 9.96681L2.69759 10.7985C2.61578 10.8803 2.61578 11.0135 2.69759 11.0953C2.73849 11.1362 2.79198 11.1572 2.84547 11.1572C2.89896 11.1572 2.95245 11.1362 2.99335 11.0953L3.82505 10.2636C3.90686 10.1818 3.90686 10.0486 3.82505 9.96681C3.74325 9.885 3.6111 9.885 3.52929 9.96681Z" fill="white"/>
<path d="M13.5833 6.28965H12.4065C12.2912 6.28965 12.1968 6.38404 12.1968 6.49941C12.1968 6.61478 12.2912 6.70917 12.4065 6.70917H13.5833C13.6987 6.70917 13.7931 6.61478 13.7931 6.49941C13.7931 6.38404 13.6997 6.28965 13.5833 6.28965Z" fill="white"/>
<path d="M2.18096 6.28965H1.00419C0.888826 6.28965 0.794434 6.38404 0.794434 6.49941C0.794434 6.61478 0.888826 6.70917 1.00419 6.70917H2.18096C2.29632 6.70917 2.39072 6.61478 2.39072 6.49941C2.39072 6.38404 2.29632 6.28965 2.18096 6.28965Z" fill="white"/>
<path d="M11.0579 9.96681C10.9761 9.885 10.8429 9.885 10.7611 9.96681C10.6793 10.0486 10.6793 10.1818 10.7611 10.2636L11.5928 11.0953C11.6337 11.1362 11.6872 11.1572 11.7406 11.1572C11.7941 11.1572 11.8476 11.1362 11.8885 11.0953C11.9703 11.0135 11.9703 10.8803 11.8885 10.7985L11.0579 9.96681Z" fill="white"/>
<path d="M2.9944 1.90356C2.91259 1.82176 2.77939 1.82176 2.69759 1.90356C2.61578 1.98537 2.61578 2.11857 2.69759 2.20038L3.52929 3.03208C3.57019 3.07298 3.62368 3.09396 3.67717 3.09396C3.73066 3.09396 3.78415 3.07298 3.82505 3.03208C3.90686 2.95027 3.90686 2.81707 3.82505 2.73527L2.9944 1.90356Z" fill="white"/>
</svg>
